<svg width="264" height="37" viewBox="0 0 264 37" fill="none" xmlns="http://www.w3.org/2000/svg">
<path d="M25.4579 9.02439H16.6721C16.626 8.48061 16.4358 8.01204 16.1014 7.61867C15.767 7.2253 15.3347 6.92448 14.8043 6.71623C14.2855 6.4964 13.709 6.38649 13.0748 6.38649C12.2562 6.38649 11.5529 6.5369 10.9649 6.83771C10.3768 7.13852 10.0886 7.5666 10.1001 8.12195C10.0886 8.51532 10.2558 8.87977 10.6017 9.21529C10.9591 9.55081 11.6451 9.81113 12.6598 9.99625L18.0557 10.9681C20.7768 11.4656 22.8002 12.3044 24.1262 13.4845C25.4636 14.6531 26.1381 16.2208 26.1497 18.1876C26.1381 20.0851 25.5732 21.7337 24.4548 23.1337C23.3479 24.522 21.8317 25.598 19.9063 26.3616C17.9923 27.1137 15.8074 27.4897 13.3515 27.4897C9.29304 27.4897 6.11658 26.6567 3.82214 24.9906C1.53923 23.3246 0.265186 21.1263 0 18.3959H9.47752C9.60435 19.2405 10.0194 19.8942 10.7227 20.3569C11.4376 20.8082 12.3369 21.0338 13.4207 21.0338C14.297 21.0338 15.0176 20.8834 15.5826 20.5826C16.1591 20.2817 16.4531 19.8537 16.4646 19.2983C16.4531 18.7892 16.1994 18.3843 15.7036 18.0835C15.2194 17.7827 14.4584 17.5397 13.4207 17.3546L8.71655 16.5216C6.00704 16.0472 3.97779 15.1448 2.6288 13.8143C1.27981 12.4837 0.611081 10.7714 0.622611 8.6773C0.611081 6.82614 1.09533 5.25844 2.07537 3.9742C3.06694 2.67839 4.47934 1.69496 6.31258 1.02392C8.15736 0.341307 10.3423 0 12.8673 0C16.7067 0 19.7333 0.798312 21.947 2.39493C24.1723 3.99156 25.3426 6.20137 25.4579 9.02439Z" fill="url(#paint0_linear_1_18)"/>
<path d="M29.8075 37V0.347091H39.285V4.99812H39.4926C39.8385 4.09568 40.3458 3.26845 41.0145 2.51641C41.6832 1.75281 42.5134 1.1454 43.5049 0.694182C44.4965 0.231394 45.6495 0 46.9639 0C48.7164 0 50.3825 0.468574 51.9621 1.40572C53.5532 2.34287 54.8445 3.81801 55.8361 5.83114C56.8392 7.84428 57.3407 10.459 57.3407 13.6754C57.3407 16.753 56.8622 19.3041 55.9053 21.3288C54.9598 23.3535 53.6915 24.8634 52.1004 25.8583C50.5208 26.8533 48.7856 27.3508 46.8947 27.3508C45.6495 27.3508 44.5369 27.1484 43.5568 26.7434C42.5883 26.3269 41.7582 25.7658 41.0664 25.06C40.3861 24.3427 39.8615 23.5328 39.4926 22.6304H39.3542V37H29.8075ZM39.1467 13.6754C39.1467 14.9712 39.3138 16.0935 39.6482 17.0422C39.9941 17.9794 40.4784 18.7083 41.101 19.2289C41.7351 19.738 42.4903 19.9925 43.3666 19.9925C44.2428 19.9925 44.9865 19.7437 45.5976 19.2462C46.2202 18.7372 46.6929 18.0141 47.0158 17.0769C47.3501 16.1282 47.5173 14.9944 47.5173 13.6754C47.5173 12.3565 47.3501 11.2284 47.0158 10.2913C46.6929 9.34256 46.2202 8.61945 45.5976 8.12195C44.9865 7.61288 44.2428 7.35835 43.3666 7.35835C42.4903 7.35835 41.7351 7.61288 41.101 8.12195C40.4784 8.61945 39.9941 9.34256 39.6482 10.2913C39.3138 11.2284 39.1467 12.3565 39.1467 13.6754Z" fill="url(#paint1_linear_1_18)"/>
<path d="M68.7423 27.4203C67.0474 27.4203 65.5485 27.1426 64.2457 26.5872C62.9543 26.0203 61.9397 25.1642 61.2018 24.0188C60.4639 22.8734 60.0949 21.4156 60.0949 19.6454C60.0949 18.1876 60.3428 16.9439 60.8386 15.9142C61.3344 14.8729 62.0262 14.0225 62.914 13.363C63.8018 12.7036 64.8337 12.2003 66.0097 11.8532C67.1973 11.5061 68.4771 11.2805 69.8492 11.1764C71.3365 11.0607 72.5298 10.9218 73.4292 10.7598C74.34 10.5863 74.9972 10.3491 75.4008 10.0483C75.8043 9.73593 76.0061 9.3252 76.0061 8.81613V8.74672C76.0061 8.05253 75.7409 7.52032 75.2105 7.15009C74.6802 6.77986 73.9999 6.59475 73.1698 6.59475C72.2589 6.59475 71.5152 6.79722 70.9387 7.20216C70.3738 7.59553 70.0336 8.20294 69.9183 9.02439H61.1326C61.2479 7.40463 61.761 5.91213 62.6718 4.5469C63.5942 3.17011 64.9375 2.07098 66.7015 1.24953C68.4656 0.41651 70.6678 0 73.3081 0C75.2105 0 76.9169 0.22561 78.4274 0.67683C79.9378 1.11648 81.2233 1.73546 82.2841 2.53377C83.3448 3.32051 84.1519 4.24609 84.7053 5.31051C85.2703 6.36335 85.5528 7.50875 85.5528 8.74672V27.0038H76.6287V23.2552H76.4212C75.8908 24.2502 75.2451 25.0543 74.4842 25.6674C73.7347 26.2806 72.8757 26.7261 71.9072 27.0038C70.9503 27.2814 69.8953 27.4203 68.7423 27.4203ZM71.8554 21.3809C72.5817 21.3809 73.262 21.2305 73.8961 20.9296C74.5418 20.6288 75.0664 20.195 75.47 19.628C75.8735 19.0611 76.0753 18.3727 76.0753 17.5629V15.3415C75.8216 15.4456 75.5507 15.5439 75.2624 15.6365C74.9857 15.729 74.6859 15.8158 74.3631 15.8968C74.0518 15.9778 73.7174 16.053 73.36 16.1224C73.0141 16.1918 72.6509 16.2555 72.2704 16.3133C71.5325 16.429 70.9272 16.6199 70.4545 16.886C69.9933 17.1406 69.6474 17.4587 69.4168 17.8405C69.1977 18.2108 69.0882 18.6273 69.0882 19.0901C69.0882 19.8305 69.3476 20.3974 69.8665 20.7908C70.3853 21.1842 71.0483 21.3809 71.8554 21.3809Z" fill="url(#paint2_linear_1_18)"/>
<path d="M102.912 27.4897C100.03 27.4897 97.5626 26.917 95.5102 25.7716C93.4579 24.6146 91.8841 23.0064 90.7888 20.947C89.6934 18.876 89.1458 16.4753 89.1458 13.7448C89.1458 11.0144 89.6934 8.61945 90.7888 6.56004C91.8841 4.48905 93.4579 2.88086 95.5102 1.73546C97.5626 0.578486 100.03 0 102.912 0C105.518 0 107.772 0.474359 109.675 1.42308C111.589 2.36022 113.07 3.69074 114.119 5.41463C115.169 7.12695 115.699 9.14009 115.711 11.454H106.856C106.729 10.0541 106.325 8.98968 105.645 8.26079C104.976 7.52032 104.111 7.15009 103.051 7.15009C102.221 7.15009 101.494 7.39306 100.872 7.87899C100.249 8.35334 99.7647 9.07645 99.4188 10.0483C99.073 11.0086 98.9 12.2176 98.9 13.6754C98.9 15.1332 99.073 16.348 99.4188 17.3199C99.7647 18.2802 100.249 19.0033 100.872 19.4892C101.494 19.9636 102.221 20.2007 103.051 20.2007C103.754 20.2007 104.377 20.0388 104.919 19.7148C105.46 19.3793 105.899 18.8934 106.233 18.257C106.579 17.6091 106.786 16.8224 106.856 15.8968H115.711C115.676 18.2455 115.14 20.2933 114.102 22.0403C113.064 23.7758 111.594 25.1179 109.692 26.0666C107.801 27.0153 105.541 27.4897 102.912 27.4897Z" fill="url(#paint3_linear_1_18)"/>
<path d="M132.378 27.4897C129.542 27.4897 127.098 26.9459 125.045 25.8583C123.005 24.7592 121.431 23.1857 120.324 21.1379C119.229 19.0785 118.681 16.6141 118.681 13.7448C118.681 10.9912 119.234 8.58474 120.341 6.52533C121.448 4.46592 123.01 2.86351 125.028 1.71811C127.046 0.572702 129.427 0 132.171 0C134.177 0 135.993 0.312383 137.619 0.937148C139.244 1.56191 140.634 2.47014 141.787 3.66182C142.94 4.84193 143.827 6.27658 144.45 7.96576C145.073 9.65494 145.384 11.5582 145.384 13.6754V15.8968H121.656V10.621H136.598C136.587 9.85741 136.391 9.18637 136.01 8.60788C135.641 8.01782 135.14 7.56082 134.506 7.23687C133.883 6.90134 133.174 6.73358 132.378 6.73358C131.606 6.73358 130.897 6.90134 130.251 7.23687C129.605 7.56082 129.087 8.01204 128.695 8.59052C128.314 9.16901 128.112 9.84584 128.089 10.621V16.3133C128.089 17.1695 128.268 17.9331 128.625 18.6041C128.983 19.2752 129.496 19.8016 130.165 20.1834C130.833 20.5652 131.64 20.7561 132.586 20.7561C133.243 20.7561 133.843 20.6635 134.385 20.4784C134.938 20.2933 135.411 20.0272 135.803 19.6801C136.195 19.3215 136.483 18.8934 136.667 18.3959H145.384C145.084 20.247 144.375 21.8552 143.257 23.2204C142.138 24.5741 140.657 25.627 138.812 26.379C136.979 27.1195 134.834 27.4897 132.378 27.4897Z" fill="url(#paint4_linear_1_18)"/>
<path d="M158.826 12.0094V27.0038H149.28V0.347091H158.342V5.41463H158.619C159.195 3.72545 160.21 2.40072 161.663 1.44043C163.127 0.480144 164.833 0 166.782 0C168.661 0 170.293 0.433865 171.676 1.30159C173.071 2.15775 174.149 3.33787 174.91 4.84193C175.683 6.346 176.063 8.0641 176.052 9.99625V27.0038H166.505V12.0094C166.517 10.6904 166.182 9.65494 165.502 8.90291C164.833 8.15088 163.899 7.77486 162.7 7.77486C161.916 7.77486 161.23 7.94841 160.642 8.2955C160.066 8.63102 159.622 9.11695 159.311 9.75328C158.999 10.378 158.838 11.1301 158.826 12.0094Z" fill="url(#paint5_linear_1_18)"/>
<path d="M193.494 27.4897C190.657 27.4897 188.213 26.9459 186.161 25.8583C184.12 24.7592 182.546 23.1857 181.439 21.1379C180.344 19.0785 179.796 16.6141 179.796 13.7448C179.796 10.9912 180.35 8.58474 181.456 6.52533C182.563 4.46592 184.126 2.86351 186.143 1.71811C188.161 0.572702 190.542 0 193.286 0C195.292 0 197.108 0.312383 198.734 0.937148C200.36 1.56191 201.749 2.47014 202.902 3.66182C204.055 4.84193 204.943 6.27658 205.565 7.96576C206.188 9.65494 206.499 11.5582 206.499 13.6754V15.8968H182.771V10.621H197.714C197.702 9.85741 197.506 9.18637 197.126 8.60788C196.757 8.01782 196.255 7.56082 195.621 7.23687C194.998 6.90134 194.289 6.73358 193.494 6.73358C192.721 6.73358 192.012 6.90134 191.366 7.23687C190.721 7.56082 190.202 8.01204 189.81 8.59052C189.429 9.16901 189.228 9.84584 189.205 10.621V16.3133C189.205 17.1695 189.383 17.9331 189.741 18.6041C190.098 19.2752 190.611 19.8016 191.28 20.1834C191.949 20.5652 192.756 20.7561 193.701 20.7561C194.358 20.7561 194.958 20.6635 195.5 20.4784C196.053 20.2933 196.526 20.0272 196.918 19.6801C197.31 19.3215 197.598 18.8934 197.783 18.3959H206.499C206.2 20.247 205.49 21.8552 204.372 23.2204C203.254 24.5741 201.772 25.627 199.927 26.379C198.094 27.1195 195.949 27.4897 193.494 27.4897Z" fill="url(#paint6_linear_1_18)"/>
<path d="M234.677 9.02439H225.891C225.845 8.48061 225.655 8.01204 225.32 7.61867C224.986 7.2253 224.554 6.92448 224.023 6.71623C223.504 6.4964 222.928 6.38649 222.294 6.38649C221.475 6.38649 220.772 6.5369 220.184 6.83771C219.596 7.13852 219.307 7.5666 219.319 8.12195C219.307 8.51532 219.475 8.87977 219.821 9.21529C220.178 9.55081 220.864 9.81113 221.879 9.99625L227.275 10.9681C229.996 11.4656 232.019 12.3044 233.345 13.4845C234.683 14.6531 235.357 16.2208 235.369 18.1876C235.357 20.0851 234.792 21.7337 233.674 23.1337C232.567 24.522 231.051 25.598 229.125 26.3616C227.211 27.1137 225.026 27.4897 222.57 27.4897C218.512 27.4897 215.335 26.6567 213.041 24.9906C210.758 23.3246 209.484 21.1263 209.219 18.3959H218.696C218.823 19.2405 219.238 19.8942 219.942 20.3569C220.656 20.8082 221.556 21.0338 222.64 21.0338C223.516 21.0338 224.236 20.8834 224.801 20.5826C225.378 20.2817 225.672 19.8537 225.683 19.2983C225.672 18.7892 225.418 18.3843 224.922 18.0835C224.438 17.7827 223.677 17.5397 222.64 17.3546L217.935 16.5216C215.226 16.0472 213.197 15.1448 211.848 13.8143C210.499 12.4837 209.83 10.7714 209.841 8.6773C209.83 6.82614 210.314 5.25844 211.294 3.9742C212.286 2.67839 213.698 1.69496 215.531 1.02392C217.376 0.341307 219.561 0 222.086 0C225.926 0 228.952 0.798312 231.166 2.39493C233.391 3.99156 234.561 6.20137 234.677 9.02439Z" fill="url(#paint7_linear_1_18)"/>
<path d="M263.308 9.02439H254.522C254.476 8.48061 254.286 8.01204 253.952 7.61867C253.617 7.2253 253.185 6.92448 252.655 6.71623C252.136 6.4964 251.559 6.38649 250.925 6.38649C250.107 6.38649 249.403 6.5369 248.815 6.83771C248.227 7.13852 247.939 7.5666 247.95 8.12195C247.939 8.51532 248.106 8.87977 248.452 9.21529C248.809 9.55081 249.495 9.81113 250.51 9.99625L255.906 10.9681C258.627 11.4656 260.651 12.3044 261.977 13.4845C263.314 14.6531 263.988 16.2208 264 18.1876C263.988 20.0851 263.423 21.7337 262.305 23.1337C261.198 24.522 259.682 25.598 257.757 26.3616C255.843 27.1137 253.658 27.4897 251.202 27.4897C247.143 27.4897 243.967 26.6567 241.672 24.9906C239.39 23.3246 238.116 21.1263 237.85 18.3959H247.328C247.455 19.2405 247.87 19.8942 248.573 20.3569C249.288 20.8082 250.187 21.0338 251.271 21.0338C252.147 21.0338 252.868 20.8834 253.433 20.5826C254.009 20.2817 254.303 19.8537 254.315 19.2983C254.303 18.7892 254.05 18.3843 253.554 18.0835C253.07 17.7827 252.309 17.5397 251.271 17.3546L246.567 16.5216C243.857 16.0472 241.828 15.1448 240.479 13.8143C239.13 12.4837 238.461 10.7714 238.473 8.6773C238.461 6.82614 238.946 5.25844 239.926 3.9742C240.917 2.67839 242.33 1.69496 244.163 1.02392C246.008 0.341307 248.193 0 250.718 0C254.557 0 257.584 0.798312 259.797 2.39493C262.023 3.99156 263.193 6.20137 263.308 9.02439Z" fill="url(#paint8_linear_1_18)"/>
<defs>
<linearGradient id="paint0_linear_1_18" x1="132" y1="-1.03099e-05" x2="346" y2="4.49999" gradientUnits="userSpaceOnUse">
<stop stop-color="white"/>
<stop offset="1" stop-color="#007F9B"/>
</linearGradient>
<linearGradient id="paint1_linear_1_18" x1="132" y1="-1.03099e-05" x2="346" y2="4.49999" gradientUnits="userSpaceOnUse">
<stop stop-color="white"/>
<stop offset="1" stop-color="#007F9B"/>
</linearGradient>
<linearGradient id="paint2_linear_1_18" x1="132" y1="-1.03099e-05" x2="346" y2="4.49999" gradientUnits="userSpaceOnUse">
<stop stop-color="white"/>
<stop offset="1" stop-color="#007F9B"/>
</linearGradient>
<linearGradient id="paint3_linear_1_18" x1="132" y1="-1.03099e-05" x2="346" y2="4.49999" gradientUnits="userSpaceOnUse">
<stop stop-color="white"/>
<stop offset="1" stop-color="#007F9B"/>
</linearGradient>
<linearGradient id="paint4_linear_1_18" x1="132" y1="-1.03099e-05" x2="346" y2="4.49999" gradientUnits="userSpaceOnUse">
<stop stop-color="white"/>
<stop offset="1" stop-color="#007F9B"/>
</linearGradient>
<linearGradient id="paint5_linear_1_18" x1="132" y1="-1.03099e-05" x2="346" y2="4.49999" gradientUnits="userSpaceOnUse">
<stop stop-color="white"/>
<stop offset="1" stop-color="#007F9B"/>
</linearGradient>
<linearGradient id="paint6_linear_1_18" x1="132" y1="-1.03099e-05" x2="346" y2="4.49999" gradientUnits="userSpaceOnUse">
<stop stop-color="white"/>
<stop offset="1" stop-color="#007F9B"/>
</linearGradient>
<linearGradient id="paint7_linear_1_18" x1="132" y1="-1.03099e-05" x2="346" y2="4.49999" gradientUnits="userSpaceOnUse">
<stop stop-color="white"/>
<stop offset="1" stop-color="#007F9B"/>
</linearGradient>
<linearGradient id="paint8_linear_1_18" x1="132" y1="-1.03099e-05" x2="346" y2="4.49999" gradientUnits="userSpaceOnUse">
<stop stop-color="white"/>
<stop offset="1" stop-color="#007F9B"/>
</linearGradient>
</defs>
</svg>
